<svg xmlns="http://www.w3.org/2000/svg" viewBox="0 0 410.299 77.506"><path fill="#939598" d="M22.043 72.579c-7.025-3.438-12.832-8.992-16.584-15.828-.653-3.389-.679-7.111.035-11.068 3.193-17.708 19.833-33.298 37.174-34.83 6.177-.549 11.609.766 15.9 3.487l-.602.107c-3.279-1.33-7.075-1.903-11.268-1.518-15.926 1.477-31.344 15.968-34.455 32.374-2.239 11.88 2.591 21.506 11.468 25.355l-1.668 1.921z"/><path fill="#BCBEC0" d="M75.562 45.18c-4.392 11.497-16.673 21.069-27.421 21.397-10.741.304-15.871-8.764-11.472-20.262 4.284-11.169 15.979-20.525 26.501-21.347-8.932.767-18.814 8.708-22.438 18.174-3.761 9.805.63 17.531 9.772 17.27 9.146-.268 19.615-8.434 23.367-18.23l1.691 2.998z"/><path fill="#0065A4" d="M65.943 14.964c-1.606-.238-3.319-.294-5.129-.146-14.09 1.171-28.547 14.188-32.305 29.074-3.742 14.893 4.635 26.021 18.723 24.848 10.204-.84 20.6-7.907 26.984-17.392-4.16 11.599-13.836 20.589-25.852 23.795-.837.104-1.672.181-2.514.217-16.979.743-27.65-12.479-23.836-29.521 3.818-17.045 20.682-31.452 37.668-32.186 1.947-.084 3.809.017 5.576.287l.685 1.024z"/><path fill="#58595B" d="M38.757 77.506c-21.371 0-38.757-17.386-38.757-38.753 0-21.368 17.386-38.753 38.757-38.753 21.368 0 38.751 17.385 38.751 38.753 0 21.367-17.383 38.753-38.751 38.753zm0-73.156c-18.972 0-34.407 15.433-34.407 34.403 0 18.972 15.436 34.404 34.407 34.404 18.97 0 34.405-15.433 34.405-34.404 0-18.97-15.435-34.403-34.405-34.403z"/><path d="M97.159 13.304h10.207c1.688 0 3.116.197 4.287.591 1.169.395 2.124.919 2.859 1.572.734.653 1.266 1.409 1.592 2.266s.49 1.749.49 2.674c0 .871-.158 1.64-.47 2.307-.313.667-.681 1.239-1.103 1.715-.422.477-.871.851-1.347 1.123-.477.272-.865.45-1.164.531.462.137 1.006.341 1.633.613.653.272 1.266.673 1.837 1.204.571.531 1.054 1.198 1.449 2 .394.803.592 1.749.592 2.837 0 1.416-.251 2.613-.755 3.593-.505.98-1.212 1.782-2.124 2.409-.913.626-2.027 1.082-3.348 1.367-1.32.287-2.797.428-4.43.428h-10.205v-27.23zm9.635 10.901c.462 0 .918-.055 1.368-.164.449-.108.843-.278 1.184-.51.34-.231.619-.544.837-.939.217-.395.326-.877.326-1.45 0-.598-.109-1.095-.326-1.49-.219-.395-.503-.708-.858-.939-.354-.23-.755-.395-1.204-.49-.45-.095-.892-.143-1.328-.143h-3.634v6.125h3.635zm.368 11.595c.436 0 .924-.034 1.469-.103.545-.067 1.049-.225 1.511-.469.462-.245.851-.599 1.164-1.062s.47-1.102.47-1.919c0-.734-.149-1.333-.449-1.796s-.681-.823-1.143-1.082c-.464-.258-.967-.436-1.511-.531-.545-.095-1.048-.144-1.511-.144h-4.001v7.106h4.001z"/><path d="M146.805 35.514c-.572.789-1.266 1.53-2.082 2.225-.817.694-1.722 1.3-2.714 1.817-.994.518-2.069.926-3.227 1.224-1.156.3-2.361.449-3.612.449-2.069 0-3.96-.353-5.676-1.061-1.714-.708-3.191-1.694-4.429-2.96-1.239-1.266-2.199-2.762-2.879-4.491-.679-1.729-1.021-3.627-1.021-5.696 0-2.014.341-3.899 1.021-5.654.681-1.756 1.641-3.28 2.879-4.573 1.237-1.292 2.722-2.312 4.449-3.062 1.729-.748 3.64-1.123 5.737-1.123 2.531 0 4.742.463 6.635 1.388 1.892.925 3.463 2.259 4.715 4.001l-4.206 4.042c-.817-1.143-1.783-2.062-2.899-2.756s-2.45-1.041-4-1.041c-1.226 0-2.327.225-3.308.674-.979.449-1.811 1.068-2.49 1.858-.681.789-1.205 1.708-1.573 2.755-.368 1.048-.551 2.157-.551 3.328 0 1.198.183 2.314.551 3.348.368 1.035.892 1.933 1.573 2.695.679.762 1.496 1.361 2.45 1.796.953.436 2.026.653 3.225.653.979 0 1.83-.102 2.552-.306.721-.205 1.36-.476 1.918-.816s1.054-.735 1.49-1.185c.436-.449.858-.904 1.266-1.367l4.206 3.838z"/><path d="M155.173 13.304h6.614l4.001 19.719 4.777-18.985h5.594l4.817 18.985 3.96-19.719h6.369l-6.94 27.23h-6.491l-4.655-17.8-4.735 17.8h-6.492l-6.819-27.23z"/><path d="M194.369 13.304h6.165v10.451h11.798v-10.451h6.166v27.23h-6.166v-11.185h-11.798v11.186h-6.165v-27.231z"/><path d="M223.805 13.304h18.618v5.389h-12.453v5.307h9.677v5.226h-9.677v5.879h13.351v5.429h-19.516v-27.23z"/><path d="M247.483 13.304h18.618v5.389h-12.453v5.307h9.677v5.226h-9.677v5.879h13.351v5.429h-19.516v-27.23z"/><path d="M271.163 13.304h6.166v21.76h13.023v5.47h-19.189v-27.23z"/><path d="M317.337 35.514c-.571.789-1.266 1.53-2.082 2.225-.816.694-1.722 1.3-2.714 1.817-.994.518-2.069.926-3.227 1.224-1.156.3-2.361.449-3.612.449-2.069 0-3.961-.353-5.677-1.061-1.714-.708-3.19-1.694-4.429-2.96-1.238-1.266-2.198-2.762-2.879-4.491-.68-1.729-1.021-3.627-1.021-5.696 0-2.014.341-3.899 1.021-5.654.681-1.756 1.641-3.28 2.879-4.573 1.238-1.292 2.722-2.312 4.449-3.062 1.729-.748 3.641-1.123 5.737-1.123 2.531 0 4.741.463 6.635 1.388 1.892.925 3.463 2.259 4.715 4.001l-4.205 4.042c-.817-1.143-1.783-2.062-2.899-2.756s-2.449-1.041-4-1.041c-1.226 0-2.327.225-3.308.674-.979.449-1.811 1.068-2.49 1.858-.681.789-1.204 1.708-1.572 2.755-.367 1.048-.551 2.157-.551 3.328 0 1.198.184 2.314.551 3.348.368 1.035.892 1.933 1.572 2.695.68.762 1.496 1.361 2.45 1.796.952.436 2.026.653 3.226.653.979 0 1.829-.102 2.551-.306.721-.205 1.36-.476 1.919-.816.558-.34 1.054-.735 1.489-1.185.436-.449.858-.904 1.266-1.367l4.206 3.838z"/><path d="M320.564 13.304h6.165v10.451h11.799v-10.451h6.165v27.23h-6.165v-11.185h-11.799v11.186h-6.165v-27.231z"/><path d="M357.798 13.304h6.818l9.962 27.23h-6.736l-2.083-6.246h-9.595l-2.082 6.246h-6.45l10.166-27.23zm6.491 16.208l-3.308-10.289-3.387 10.289h6.695z"/><path d="M377.558 13.304h6.164v27.23h-6.164v-27.23z"/><path d="M389.029 13.304h10.124c1.58 0 2.969.224 4.165.673 1.198.449 2.197 1.062 3 1.837.804.776 1.403 1.681 1.799 2.715.393 1.035.591 2.138.591 3.307 0 1.77-.387 3.314-1.164 4.634-.776 1.32-1.872 2.375-3.287 3.164l6.043 10.9h-6.778l-5.062-10.002h-3.429v10.002h-6.002v-27.23zm9.8 12.289c1.143 0 2.041-.34 2.693-1.021.652-.68.98-1.537.98-2.571 0-1.117-.328-2.001-.98-2.655-.652-.652-1.551-.979-2.693-.979h-3.798v7.227h3.798z"/><g fill="#6D6E71"><path d="M98.626 61.702c.434.436 1.001.831 1.701 1.188.697.357 1.466.536 2.305.536.202 0 .412-.021.627-.059.219-.039.412-.104.583-.198.17-.093.312-.217.419-.372.108-.155.164-.357.164-.605 0-.405-.207-.739-.617-1.001-.413-.264-1.013-.529-1.806-.793l-.861-.279c-.481-.155-.967-.357-1.456-.605-.49-.248-.929-.548-1.317-.898-.387-.349-.703-.759-.942-1.234-.242-.473-.36-1.028-.36-1.665 0-.713.13-1.377.396-1.992.263-.613.647-1.149 1.152-1.607.505-.458 1.13-.815 1.875-1.072.744-.256 1.606-.384 2.584-.384.762 0 1.453.071 2.073.21.622.14 1.165.312 1.63.514.467.201.862.418 1.189.651.326.232.574.441.746.629l-2.097 2.655c-.543-.403-1.11-.734-1.701-.991-.589-.256-1.194-.384-1.816-.384-.201 0-.403.024-.605.071-.201.046-.384.115-.546.21-.164.091-.295.212-.396.36-.102.147-.152.331-.152.546 0 .233.058.436.174.605.117.171.276.319.477.443.203.124.446.238.735.338l.919.314.746.233c.527.171 1.064.369 1.608.593.543.225 1.031.529 1.466.908.436.381.793.855 1.071 1.42.28.567.419 1.263.419 2.085 0 .713-.166 1.375-.499 1.98-.335.605-.786 1.125-1.353 1.56-.567.436-1.234.773-2.002 1.013-.768.242-1.587.362-2.457.362-1.553 0-2.853-.205-3.901-.617s-1.938-.967-2.667-1.666l2.492-3.002z"/><path d="M134.471 51.081h6.335c.839 0 1.595.112 2.271.338.675.226 1.252.551 1.733.979.481.425.855.963 1.12 1.606.263.644.396 1.385.396 2.224 0 .792-.136 1.509-.408 2.154-.271.646-.644 1.195-1.119 1.654-.473.458-1.04.808-1.698 1.047-.662.242-1.387.362-2.18.362h-2.421v5.17h-4.029v-15.534zm5.986 7.127c.56 0 1.002-.177 1.327-.535.327-.357.491-.815.491-1.373 0-.591-.157-1.065-.467-1.422-.31-.356-.768-.536-1.374-.536h-1.934v3.866h1.957z"/><path d="M179.144 66.989c-1.167 0-2.242-.205-3.227-.617-.986-.412-1.84-.979-2.562-1.7-.722-.724-1.285-1.584-1.689-2.585-.403-1.003-.605-2.092-.605-3.274 0-1.178.202-2.27.605-3.272.405-1.001.967-1.862 1.689-2.584s1.576-1.285 2.562-1.689c.985-.403 2.06-.605 3.227-.605 1.164 0 2.241.203 3.237.605.992.405 1.847.967 2.561 1.689.715.722 1.273 1.583 1.677 2.584.405 1.003.605 2.094.605 3.272 0 1.182-.201 2.271-.605 3.274-.404 1.001-.962 1.862-1.677 2.585-.713.721-1.568 1.288-2.561 1.7-.996.412-2.073.617-3.237.617zm0-3.867c.605 0 1.143-.112 1.618-.337.473-.224.873-.531 1.199-.92.325-.388.573-.846.744-1.375.171-.527.257-1.087.257-1.678 0-.589-.085-1.149-.257-1.676-.171-.527-.419-.985-.744-1.375-.326-.387-.727-.694-1.199-.918-.476-.226-1.013-.338-1.618-.338-.607 0-1.146.112-1.62.338-.474.225-.873.532-1.199.918-.326.39-.574.848-.746 1.375-.171.527-.257 1.086-.257 1.676 0 .591.085 1.15.257 1.678.171.528.419.986.746 1.375s.725.696 1.199.92c.474.225 1.013.337 1.62.337z"/><path d="M212.706 51.081h6.427c.839 0 1.596.109 2.271.327.676.217 1.255.539 1.737.967.48.427.854.958 1.116 1.595.264.638.396 1.373.396 2.212 0 1.025-.224 1.914-.675 2.667-.45.753-1.047 1.355-1.792 1.804l3.33 5.963h-4.424l-2.633-5.287h-1.723v5.287h-4.029v-15.535zm6.031 7.011c.543 0 .986-.167 1.329-.502.34-.333.511-.78.511-1.338 0-.591-.163-1.056-.489-1.397-.327-.342-.784-.514-1.375-.514h-1.979v3.75h2.003z"/><path d="M254 54.692h-4.775v-3.611h13.672v3.611h-4.728v11.924h-4.169v-11.924z"/><path d="M289.03 61.702c.434.436 1.001.831 1.699 1.188s1.468.536 2.305.536c.203 0 .412-.021.63-.059.217-.039.411-.104.583-.198.17-.093.31-.217.418-.372.109-.155.164-.357.164-.605 0-.405-.207-.739-.617-1.001-.412-.264-1.014-.529-1.805-.793l-.862-.279c-.481-.155-.968-.357-1.456-.605-.489-.248-.928-.548-1.316-.898-.388-.349-.702-.759-.943-1.234-.24-.473-.36-1.028-.36-1.665 0-.713.132-1.377.396-1.992.265-.613.648-1.149 1.153-1.607.504-.458 1.13-.815 1.874-1.072.746-.256 1.608-.384 2.586-.384.761 0 1.451.071 2.073.21.62.14 1.164.312 1.63.514.466.201.861.418 1.188.651.326.232.574.441.746.629l-2.097 2.655c-.544-.403-1.109-.734-1.7-.991-.591-.256-1.196-.384-1.816-.384-.202 0-.404.024-.605.071-.202.046-.384.115-.548.21-.162.091-.295.212-.396.36-.102.147-.152.331-.152.546 0 .233.06.436.176.605.117.171.274.319.478.443.202.124.445.238.733.338l.92.314.746.233c.527.171 1.063.369 1.606.593.543.225 1.032.529 1.468.908.435.381.792.855 1.07 1.42.279.567.42 1.263.42 2.085 0 .713-.167 1.375-.501 1.98s-.784 1.125-1.351 1.56c-.567.436-1.235.773-2.003 1.013-.77.242-1.589.362-2.457.362-1.554 0-2.853-.205-3.901-.617s-1.938-.967-2.667-1.666l2.491-3.002z"/></g></svg>